<?xml version="1.0" encoding="UTF-8"?>
<svg xmlns="http://www.w3.org/2000/svg" width="583.7" height="48.4" version="1.1" viewBox="0 0 583.7 48.4">
  <defs>
    <style>
      .cls-1 {
        fill: #231815;
      }

      .cls-2 {
        fill: #ef0041;
      }
    </style>
  </defs>
  <g>
    <g id="logo">
      <g>
        <polygon class="cls-2" points="27.9 8.6 22.4 18.1 27.9 27.5 33.4 18.1 27.9 8.6"></polygon>
        <polygon class="cls-2" points="27.9 27.5 33.4 37 44.3 37 38.8 27.5 27.9 27.5"></polygon>
        <polygon class="cls-2" points="27.9 27.5 22.4 37 11.5 37 17 27.5 27.9 27.5"></polygon>
        <g>
          <path class="cls-1" d="M266.2,13.9c-.2-.4-.8-.4-1.1,0l-10.6,22.2c-.2.4,0,.8.5.8h2.4c.2,0,.4-.1.5-.3l2.8-5.9h9.9l2.7,5.9c0,.2.3.3.5.3h2.5c.4,0,.7-.4.5-.8l-10.7-22.2ZM262.2,27.8l3.5-7.6,3.6,7.6h-7.1Z"></path>
          <path class="cls-1" d="M344.2,13.9c-.2-.4-.8-.4-1.1,0l-10.6,22.2c-.2.4,0,.8.5.8h2.4c.2,0,.4-.1.5-.3l2.8-5.9h9.9l2.7,5.9c0,.2.3.3.5.3h2.5c.4,0,.7-.4.5-.8l-10.7-22.2ZM340.2,27.8l3.5-7.6,3.6,7.6h-7.1Z"></path>
          <path class="cls-1" d="M316.8,27.3c1.7-.2,3.1-1,4.1-2,1.1-1.1,1.6-2.6,1.6-4.3,0-2.4-1-4.2-2.9-5.2-1.5-.8-3.6-1.2-6.3-1.2h-3.3c-.3,0-.6.3-.6.6v21.3c0,.3.3.6.6.6h2.2c.3,0,.6-.3.6-.6v-8.9h.1l6.9,9.2c.1.1.3.2.5.2h2.7c.5,0,.8-.6.5-.9l-6.8-8.8ZM312.9,24.7v-7.2h.5c1.5,0,3,0,4.1.6,1.1.5,1.7,1.5,1.7,3,0,2.5-1.7,3.6-5.8,3.6h-.5Z"></path>
          <path class="cls-1" d="M138.2,14.5h-2.2c-.3,0-.6.3-.6.6v12.6c0,.1,0,.2,0,.3,0,1.6,0,3.3-1.1,4.5-1,1.1-2.8,1.8-4.5,1.8s-3.7-.8-4.6-2c-1-1.2-1-2.9-1-4.4v-12.9c0-.3-.3-.6-.6-.6h-2.2c-.3,0-.6.3-.6.6v13.3c0,2.3.2,4.6,2.5,6.6,1.6,1.5,4.1,2.3,6.5,2.3s5.1-1,6.8-2.6c2.1-1.9,2.2-4,2.2-6.3v-13.3c0-.3-.3-.6-.6-.6Z"></path>
          <path class="cls-1" d="M153.7,24.9c1.3-1,1.9-2.4,1.9-4.1s-.9-3.9-2.6-5c-1.4-.9-3.4-1.3-5.9-1.3h-3.7c-.3,0-.6.3-.6.6v21.3c0,.3.3.6.6.6h5.4c2.6,0,4.8-.5,6.3-1.5,1.8-1.1,2.7-2.6,2.7-4.8s-1.6-4.9-4.1-5.8ZM153.5,24.9h0s0,0,0,0h0ZM146.2,17.5h.7c3.6,0,5.3.5,5.3,3.3s-.5,2.3-1.5,2.8c-1,.5-2.4.6-3.8.6h-.7v-6.7ZM152.6,33.3c-1,.5-2.3.7-4.1.7h-2.3v-7h2c4.2,0,6.2,1.1,6.2,3.6s-.6,2.2-1.8,2.7Z"></path>
          <rect class="cls-1" x="79.7" y="14.5" width="3.4" height="22.5" rx=".6" ry=".6"></rect>
          <rect class="cls-1" x="209.6" y="14.5" width="3.4" height="22.5" rx=".6" ry=".6"></rect>
          <rect class="cls-1" x="326.9" y="14.5" width="3.4" height="22.5" rx=".6" ry=".6"></rect>
          <rect class="cls-1" x="161.1" y="14.5" width="3.4" height="22.5" rx=".6" ry=".6"></rect>
          <path class="cls-1" d="M204.6,14.5h-2.2c-.3,0-.6.3-.6.6v8.3h-11.7v-8.3c0-.3-.3-.6-.6-.6h-2.2c-.3,0-.6.3-.6.6v21.3c0,.3.3.6.6.6h2.2c.3,0,.6-.3.6-.6v-10.1h11.7v10.1c0,.3.3.6.6.6h2.2c.3,0,.6-.3.6-.6V15.1c0-.3-.3-.6-.6-.6Z"></path>
          <path class="cls-1" d="M111.6,23.7l-1.6-.6h0c-1.6-.7-3.6-1.5-3.6-3.1s1.6-3.1,3.7-3.1,1.8.2,2.4.7c.6.4,1,.9,1.2,1.4.2.3.7.4.9.1l1.5-1.5c.2-.2.2-.5,0-.8-.7-.9-2.6-2.9-6.1-2.9s-7.1,2.6-7.1,5.9,2.7,4.8,5.5,6l1.5.6h.1c2.2,1,4.1,1.8,4.1,4s-2.1,3.9-4.6,3.9-1,0-1.5-.3c-1.9-.7-2.6-2.1-2.9-3.2-.1-.4-.7-.6-1-.3l-1.7,1.7c-.2.2-.2.4-.1.7.5,1,2,3.4,5.5,4.1.6.1,1.2.2,1.8.2,4.5,0,8-3.1,8-7.1s-3-5.3-6-6.5Z"></path>
          <path class="cls-1" d="M177.4,23.7l-1.6-.6h0c-1.6-.7-3.6-1.5-3.6-3.1s1.6-3.1,3.7-3.1,1.8.2,2.4.7c.6.4,1,.9,1.2,1.4.2.3.7.4.9.1l1.5-1.5c.2-.2.2-.5,0-.8-.7-.9-2.6-2.9-6.1-2.9s-7.1,2.6-7.1,5.9,2.7,4.8,5.5,6l1.5.6h.1c2.2,1,4.1,1.8,4.1,4s-2.1,3.9-4.6,3.9-1,0-1.5-.3c-1.9-.7-2.6-2.1-2.9-3.2-.1-.4-.7-.6-1-.3l-1.7,1.7c-.2.2-.2.4-.1.7.5,1,2,3.4,5.5,4.1.6.1,1.2.2,1.8.2,4.5,0,8-3.1,8-7.1s-3-5.3-6-6.5Z"></path>
          <path class="cls-1" d="M378.6,23.7l-1.6-.6h0c-1.6-.7-3.6-1.5-3.6-3.1s1.6-3.1,3.7-3.1,1.8.2,2.4.7c.6.4,1,.9,1.2,1.4.2.3.7.4.9.1l1.5-1.5c.2-.2.2-.5,0-.8-.7-.9-2.6-2.9-6.1-2.9s-7.1,2.6-7.1,5.9,2.7,4.8,5.5,6l1.5.6h.1c2.2,1,4.1,1.8,4.1,4s-2.1,3.9-4.6,3.9-1,0-1.5-.3c-1.9-.7-2.6-2.1-2.9-3.2-.1-.4-.7-.6-1-.3l-1.7,1.7c-.2.2-.2.4-.1.7.5,1,2,3.4,5.5,4.1.6.1,1.2.2,1.8.2,4.5,0,8-3.1,8-7.1s-3-5.3-6-6.5Z"></path>
          <path class="cls-1" d="M71.1,13.9l-8.2,16.4-8.2-16.4c-.2-.5-1-.4-1.1.1l-4.7,22.2c0,.4.2.7.6.7h2.3c.3,0,.5-.2.6-.5l2.9-13.8,7.1,13.9c.2.4.8.4,1,0l7.2-13.9,2.9,13.8c0,.3.3.5.6.5h2.3c.4,0,.6-.3.6-.7l-4.7-22.2c-.1-.5-.8-.6-1.1-.1Z"></path>
          <path class="cls-1" d="M246.7,13.9l-8.2,16.4-8.2-16.4c-.2-.5-1-.4-1.1.1l-4.7,22.2c0,.4.2.7.6.7h2.3c.3,0,.5-.2.6-.5l2.9-13.8,7.1,13.9c.2.4.8.4,1,0l7.2-13.9,2.9,13.8c0,.3.3.5.6.5h2.3c.4,0,.6-.3.6-.7l-4.7-22.2c-.1-.5-.8-.6-1.1-.1Z"></path>
          <path class="cls-1" d="M101.4,14.5h-15c-.3,0-.6.3-.6.6v1.8c0,.3.3.6.6.6h5.3v18.9c0,.3.3.6.6.6h2.2c.3,0,.6-.3.6-.6v-18.9h4.5c.2,0,.3,0,.4-.2l1.8-1.8c.4-.4.1-1-.4-1Z"></path>
          <path class="cls-1" d="M290,14.5h-15c-.3,0-.6.3-.6.6v1.8c0,.3.3.6.6.6h5.3v18.9c0,.3.3.6.6.6h2.2c.3,0,.6-.3.6-.6v-18.9h4.5c.2,0,.3,0,.4-.2l1.8-1.8c.4-.4.1-1-.4-1Z"></path>
          <path class="cls-1" d="M366.9,34h-5.8V15.1c0-.3-.3-.6-.6-.6h-2.2c-.3,0-.6.3-.6.6v21.3c0,.3.3.6.6.6h6.8c.2,0,.3,0,.4-.2l1.8-1.8c.4-.4.1-1-.4-1Z"></path>
          <path class="cls-1" d="M305.3,14.5h-12.3c-.3,0-.6.3-.6.6v21.3c0,.3.3.6.6.6h12.1c.3,0,.6-.3.6-.6v-1.8c0-.3-.3-.6-.6-.6h-9.3v-7.7h9c.3,0,.6-.3.6-.6v-1.8c0-.3-.3-.6-.6-.6h-9v-5.9h7.7c.2,0,.3,0,.4-.2l1.8-1.8c.4-.4.1-1-.4-1Z"></path>
          <path class="cls-1" d="M571.5,33.5c-.4-.4-.9-.6-1.5-.6s-1,.2-1.4.6c-.4.4-.6.9-.6,1.4s.2,1.1.6,1.5c.4.4.9.6,1.5.6s1.1-.2,1.5-.6c.4-.4.6-.9.6-1.5s-.2-1.1-.6-1.5Z"></path>
          <path class="cls-1" d="M441.5,13.9c-.2-.4-.8-.4-1.1,0l-10.6,22.2c-.2.4,0,.8.5.8h2.4c.2,0,.4-.1.5-.3l2.8-5.9h9.9l2.7,5.9c0,.2.3.3.5.3h2.5c.4,0,.7-.4.5-.8l-10.7-22.2ZM437.5,27.8l3.5-7.6,3.6,7.6h-7.1Z"></path>
          <path class="cls-1" d="M554.8,13.9c-.2-.4-.8-.4-1.1,0l-10.6,22.2c-.2.4,0,.8.5.8h2.4c.2,0,.4-.1.5-.3l2.8-5.9h9.9l2.7,5.9c0,.2.3.3.5.3h2.5c.4,0,.7-.4.5-.8l-10.7-22.2ZM550.8,27.8l3.5-7.6,3.6,7.6h-7.1Z"></path>
          <path class="cls-1" d="M420.9,27.3c1.7-.2,3.1-1,4.1-2,1.1-1.1,1.6-2.6,1.6-4.3,0-2.4-1-4.2-2.9-5.2-1.5-.8-3.6-1.2-6.3-1.2h-3.3c-.3,0-.6.3-.6.6v21.3c0,.3.3.6.6.6h2.2c.3,0,.6-.3.6-.6v-8.9h.1l6.9,9.2c.1.1.3.2.5.2h2.7c.5,0,.8-.6.5-.9l-6.8-8.8ZM417,24.7v-7.2h.5c1.5,0,3,0,4.1.6,1.1.5,1.7,1.5,1.7,3,0,2.5-1.7,3.6-5.8,3.6h-.5Z"></path>
          <rect class="cls-1" x="471.2" y="14.5" width="3.4" height="22.5" rx=".6" ry=".6"></rect>
          <path class="cls-1" d="M462.3,23.7l-1.6-.6h0c-1.6-.7-3.6-1.5-3.6-3.1s1.6-3.1,3.7-3.1,1.8.2,2.4.7c.6.4,1,.9,1.2,1.4.2.3.7.4.9.1l1.5-1.5c.2-.2.2-.5,0-.8-.7-.9-2.6-2.9-6.1-2.9s-7.1,2.6-7.1,5.9,2.7,4.8,5.5,6l1.5.6h.1c2.2,1,4.1,1.8,4.1,4s-2.1,3.9-4.6,3.9-1,0-1.5-.3c-1.9-.7-2.6-2.1-2.9-3.2-.1-.4-.7-.6-1-.3l-1.7,1.7c-.2.2-.2.4-.1.7.5,1,2,3.4,5.5,4.1.6.1,1.2.2,1.8.2,4.5,0,8-3.1,8-7.1s-3-5.3-6-6.5Z"></path>
          <path class="cls-1" d="M522.9,14.5h-15c-.3,0-.6.3-.6.6v1.8c0,.3.3.6.6.6h5.3v18.9c0,.3.3.6.6.6h2.2c.3,0,.6-.3.6-.6v-18.9h4.5c.2,0,.3,0,.4-.2l1.8-1.8c.4-.4.1-1-.4-1Z"></path>
          <path class="cls-1" d="M487.7,34h-5.8V15.1c0-.3-.3-.6-.6-.6h-2.2c-.3,0-.6.3-.6.6v21.3c0,.3.3.6.6.6h6.8c.2,0,.3,0,.4-.2l1.8-1.8c.4-.4.1-1-.4-1Z"></path>
          <path class="cls-1" d="M507.2,34h-5.8V15.1c0-.3-.3-.6-.6-.6h-2.2c-.3,0-.6.3-.6.6v21.3c0,.3.3.6.6.6h6.8c.2,0,.3,0,.4-.2l1.8-1.8c.4-.4.1-1-.4-1Z"></path>
          <path class="cls-1" d="M406.3,24.9c1.3-1,1.9-2.4,1.9-4.1s-.9-3.9-2.6-5c-1.4-.9-3.4-1.3-5.9-1.3h-3.7c-.3,0-.6.3-.6.6v21.3c0,.3.3.6.6.6h5.4c2.6,0,4.8-.5,6.3-1.5,1.8-1.1,2.7-2.6,2.7-4.8s-1.6-4.9-4.1-5.8ZM398.9,17.5h.7c3.6,0,5.3.5,5.3,3.3s-.5,2.3-1.5,2.8c-1,.5-2.4.6-3.8.6h-.7v-6.7ZM405.3,33.3c-1,.5-2.3.7-4.1.7h-2.3v-7h2c4.2,0,6.2,1.1,6.2,3.6s-.6,2.2-1.8,2.7Z"></path>
          <path class="cls-1" d="M542.2,20c-.9-1.7-2.2-3.1-3.8-4-1.7-1-3.6-1.5-5.6-1.5h-6.5c-.3,0-.6.3-.6.6v21.3c0,.3.3.6.6.6h6.4c2,0,3.8-.4,5.5-1.3,1.7-.9,3-2.2,3.9-3.9.9-1.7,1.4-3.7,1.4-5.9s-.4-4.1-1.3-5.8ZM537.9,31.9c-1.4,1.4-3.1,2.1-5.2,2.1h-3.6v-16.5h3.7c1.4,0,2.7.4,3.8,1,1.1.7,2,1.6,2.6,2.9.6,1.2.9,2.7.9,4.4,0,2.6-.7,4.7-2.1,6.1Z"></path>
        </g>
      </g>
    </g>
  </g>
</svg>
