<svg xmlns="http://www.w3.org/2000/svg" viewBox="0 0 150 57" width="150" height="57">
<style type="text/css">
	.st0{fill:#8548FF;}
	.st1{fill:#FFFFFF;}
	.st2{fill:#E60012;}
</style>
<g>
	<polyline class="st1" points="16.8,9.1 18.7,5.9 3,5.9 3,2 25.8,2 25.8,7.4 11.4,30.8 3.7,30.8 16.8,9.1 	"/>
	<path class="st2" d="M143.8,23.3c-0.6-0.9-1.5-1.5-2.6-2c-1.1-0.5-2.8-0.8-5.2-1.1c-1.5-0.2-2.5-0.4-3-0.6c-0.5-0.2-0.7-0.6-0.7-1
		c0-0.4,0.2-0.7,0.5-1c0.4-0.3,0.9-0.4,1.7-0.4c0.8,0,1.4,0.2,2,0.5c0.4,0.3,0.7,0.7,0.9,1.3l6.6-0.6c-0.5-1.2-1-2.1-1.7-2.8
		c-0.7-0.7-1.6-1.2-2.6-1.5c-1-0.3-2.6-0.5-4.8-0.5c-2.1,0-3.7,0.2-4.9,0.6c-0.9,0.3-1.6,0.7-2.2,1.3l0.4-1c-1.2-0.6-2.3-1-3.4-1
		c-1,0-1.8,0.2-2.5,0.7c-0.7,0.5-1.3,1.4-1.9,2.7v-3H114v6.3c-0.2-0.8-0.4-1.5-0.8-2.1c-0.8-1.5-1.9-2.6-3.4-3.4
		c-1.5-0.8-3.6-1.2-6.2-1.2c-3.2,0-5.7,0.9-7.5,2.6c-1.2,1.2-2,2.6-2.4,4.2V7h-7v8.7c-0.7-0.7-1.5-1.3-2.4-1.6
		c-0.9-0.4-1.9-0.5-2.9-0.5c-2.2,0-4.1,0.8-5.5,2.4c-0.9,1-1.5,2.2-1.8,3.7c-0.1-0.7-0.2-1.4-0.5-2.1c-0.3-0.9-0.8-1.7-1.4-2.2
		c-0.8-0.7-1.9-1.2-3.2-1.5c-1.3-0.2-2.9-0.4-5-0.4c-1.3,0-2.5,0.1-3.6,0.3c-1.1,0.2-2,0.5-2.6,0.8c-0.9,0.5-1.6,1.1-2,1.7
		c-0.5,0.7-0.8,1.5-1.1,2.7c-0.1-0.3-0.3-0.6-0.4-0.9c-0.8-1.5-1.9-2.6-3.4-3.4c-1.5-0.8-3.6-1.2-6.2-1.2c-3.2,0-5.7,0.9-7.5,2.6
		c-1.5,1.4-2.3,3.2-2.6,5.3V7h-6.5v-7.1h-27V8H15L0,32.9h12.6L27.5,8.7v23.3h7v-7.5c0.2,1.4,0.6,2.6,1.3,3.6c0.9,1.5,2,2.6,3.4,3.2
		c1.4,0.7,3.3,1,5.7,1c2.8,0,4.9-0.4,6.4-1.2c1.1-0.6,2.1-1.5,3-2.7c0.2,0.9,0.7,1.7,1.5,2.4c1.1,1,2.8,1.5,4.9,1.5
		c1.6,0,3.1-0.3,4.3-0.8c0.9-0.4,1.8-1,2.7-1.9c0.1,0.5,0.2,0.9,0.2,1.2c0.1,0.2,0.3,0.6,0.5,1.1h6.5c-0.4-0.8-0.6-1.4-0.7-1.9
		c-0.1-0.5-0.2-1.2-0.2-2v-2.1c0.3,1.3,0.8,2.5,1.6,3.6c1.3,1.9,3.2,2.8,5.7,2.8c1.2,0,2.3-0.3,3.4-0.8c0.8-0.4,1.6-1.2,2.5-2.3v2.7
		h6.5v-6.4c0.2,0.9,0.6,1.8,1.1,2.5c0.9,1.5,2,2.6,3.4,3.2c1.4,0.7,3.3,1,5.7,1c2.8,0,4.9-0.4,6.4-1.2c1.5-0.8,2.7-2.1,3.8-3.9v4.7
		h7V26c0-2.9,0.4-4.9,1.1-6c0.5-0.8,1.2-1.1,2.1-1.1c0.5,0,1.1,0.2,1.9,0.5l0.1-0.2c0,1.1,0.3,2,1,2.8c0.6,0.9,1.4,1.5,2.4,1.8
		c0.9,0.4,2.6,0.7,5,1.2c1.6,0.3,2.6,0.5,3,0.7c0.5,0.3,0.8,0.7,0.8,1.2c0,0.4-0.2,0.8-0.6,1.1c-0.5,0.4-1.2,0.6-2.2,0.6
		c-0.9,0-1.5-0.2-2.1-0.5c-0.5-0.4-0.9-0.9-1.2-1.8l-6.9,0.6c0.4,1.7,1.3,3.1,2.7,4c1.4,0.9,3.8,1.4,7.1,1.4c2.3,0,4.2-0.3,5.6-0.9
		c1.4-0.6,2.4-1.4,3-2.4s0.9-2,0.9-3.1C144.7,25.1,144.4,24.2,143.8,23.3z M25.8,7.4L11.4,30.8H3.7l15-24.9H3V2h22.8V7.4z
		 M42.2,18.9c0.7-0.9,1.5-1.3,2.7-1.3c1,0,1.7,0.3,2.3,0.9c0.6,0.6,0.9,1.5,1.1,2.9h-6.9C41.5,20.3,41.8,19.5,42.2,18.9z M54,27.3
		C54,27.3,54,27.3,54,27.3l-5.9-0.5c-0.4,0.5-0.8,0.9-1.2,1.1c-0.6,0.3-1.3,0.5-1.9,0.5c-1.1,0-2-0.4-2.6-1.2
		c-0.5-0.5-0.8-1.4-0.9-2.5h13.2C54.2,25.4,54,26.3,54,27.3z M67.3,24.6c0,0.9-0.1,1.6-0.4,2.1c-0.3,0.5-0.8,1-1.4,1.4
		c-0.7,0.4-1.4,0.6-2.2,0.6c-0.7,0-1.3-0.2-1.7-0.5c-0.4-0.3-0.6-0.8-0.6-1.3c0-0.5,0.2-0.9,0.6-1.3c0.4-0.4,1.3-0.7,2.7-1.1
		c1-0.3,2-0.6,3-0.9V24.6z M64.8,20.8c-0.8,0.2-2.5,0.6-5.1,1.1c-2.1,0.4-3.5,1-4.4,1.9c0-1.8-0.3-3.4-0.7-4.7l6.6,0.7
		c0.3-0.8,0.6-1.3,1.1-1.6c0.6-0.4,1.4-0.5,2.6-0.5c0.9,0,1.5,0.2,1.9,0.5c0.4,0.3,0.5,0.9,0.5,1.8C66.4,20.3,65.6,20.6,64.8,20.8z
		 M85.8,26.3c-0.6,0.7-1.3,1-2.2,1c-0.8,0-1.5-0.3-2.1-1c-0.6-0.7-0.8-1.8-0.8-3.3c0-1.6,0.3-2.7,0.8-3.4c0.5-0.7,1.2-1,2-1
		c0.9,0,1.7,0.4,2.3,1.1c0.6,0.7,0.9,1.8,0.9,3.2C86.7,24.5,86.4,25.6,85.8,26.3z M101.3,18.9c0.7-0.9,1.5-1.3,2.7-1.3
		c1,0,1.7,0.3,2.3,0.9c0.6,0.6,0.9,1.5,1.1,2.9h-6.9C100.6,20.3,100.8,19.5,101.3,18.9z M114,27.4l-6.8-0.6
		c-0.4,0.5-0.8,0.9-1.2,1.1c-0.6,0.3-1.3,0.5-1.9,0.5c-1.1,0-2-0.4-2.6-1.2c-0.5-0.5-0.8-1.4-0.9-2.5H114V27.4z"/>
	<path class="st1" d="M149.5,7.2c-0.3-0.6-0.8-1.1-1.4-1.4c-1.2-0.6-2.5-0.6-3.7,0c-0.6,0.3-1.1,0.8-1.4,1.4
		c-0.3,0.6-0.5,1.2-0.5,1.9c0,0.6,0.2,1.3,0.5,1.9c0.3,0.6,0.8,1.1,1.4,1.4c0.6,0.3,1.2,0.5,1.9,0.5c0.7,0,1.3-0.2,1.9-0.5
		c0.6-0.3,1.1-0.8,1.4-1.4c0.3-0.6,0.5-1.2,0.5-1.9C150,8.4,149.8,7.8,149.5,7.2z M149.2,9.1c0,0.5-0.1,1-0.4,1.5
		c-0.3,0.5-0.6,0.9-1.1,1.1c-1,0.5-2,0.5-3,0c-0.5-0.3-0.9-0.6-1.1-1.1c-0.3-0.5-0.4-1-0.4-1.5c0-0.5,0.1-1,0.4-1.5
		c0.3-0.5,0.6-0.9,1.1-1.1c0.5-0.3,1-0.4,1.5-0.4c0.5,0,1,0.1,1.5,0.4c0.5,0.3,0.9,0.6,1.1,1.1C149.1,8.1,149.2,8.6,149.2,9.1z"/>
	<path class="st1" d="M146.9,9.5c0,0-0.1-0.1-0.2-0.1c0.3-0.1,0.5-0.2,0.6-0.4c0.2-0.2,0.3-0.5,0.3-0.8c0-0.2-0.1-0.4-0.2-0.6
		c-0.1-0.2-0.3-0.3-0.5-0.4c-0.2-0.1-0.6-0.1-1-0.1h-1.4v4.1h0.8V9.5h0.3c0.2,0,0.4,0,0.5,0.1c0.2,0.1,0.4,0.4,0.7,0.9l0.4,0.7h1
		l-0.6-0.9C147.3,9.9,147.1,9.7,146.9,9.5z M146.8,8c0.1,0.1,0.1,0.2,0.1,0.3c0,0.2-0.1,0.3-0.2,0.4c-0.1,0.1-0.4,0.2-0.7,0.2h-0.7
		V7.8h0.7c0.3,0,0.5,0,0.6,0.1C146.7,7.9,146.8,7.9,146.8,8z"/>
	<path class="st1" d="M6.9,52.6V42H2.4v-1.4h10.7V42H8.7v10.6H6.9z"/>
	<path class="st1" d="M14.4,52.6v-12h1.7v4.3c0.8-0.8,1.8-1.2,2.9-1.2c0.7,0,1.4,0.1,1.9,0.4c0.5,0.3,0.9,0.6,1.1,1
		c0.2,0.4,0.3,1.1,0.3,1.9v5.5h-1.7v-5.5c0-0.7-0.2-1.3-0.5-1.6c-0.4-0.3-0.9-0.5-1.5-0.5c-0.5,0-1,0.1-1.4,0.3
		c-0.4,0.2-0.7,0.5-0.9,0.9s-0.3,0.9-0.3,1.6v4.7H14.4z"/>
	<path class="st1" d="M31.3,49.8L33,50c-0.3,0.9-0.8,1.6-1.5,2.1c-0.7,0.5-1.7,0.7-2.8,0.7c-1.4,0-2.6-0.4-3.4-1.2
		c-0.8-0.8-1.3-1.9-1.3-3.3c0-1.5,0.4-2.6,1.3-3.4c0.8-0.8,2-1.2,3.3-1.2c1.3,0,2.4,0.4,3.2,1.2s1.2,1.9,1.2,3.3c0,0.1,0,0.2,0,0.4
		h-7.3c0.1,1,0.4,1.7,0.9,2.2c0.5,0.5,1.2,0.8,2,0.8c0.6,0,1.1-0.1,1.6-0.4C30.7,50.9,31,50.4,31.3,49.8z M25.8,47.4h5.5
		c-0.1-0.7-0.3-1.3-0.6-1.6c-0.5-0.6-1.2-0.8-2.1-0.8c-0.8,0-1.4,0.2-1.9,0.7C26.2,46.1,25.9,46.7,25.8,47.4z"/>
	<path class="st1" d="M38.4,52.6l5.2-12h1.9l5.5,12h-2L47.4,49h-5.7l-1.5,3.6H38.4z M42.3,47.7h4.6l-1.4-3.3c-0.4-1-0.8-1.8-1-2.5
		c-0.2,0.8-0.4,1.5-0.7,2.3L42.3,47.7z"/>
	<path class="st1" d="M52.3,52.6v-8.7h1.5v1.3c0.4-0.6,0.7-1,1.1-1.2c0.3-0.2,0.7-0.3,1.1-0.3c0.6,0,1.1,0.2,1.7,0.5L57,45.6
		c-0.4-0.2-0.8-0.3-1.2-0.3c-0.4,0-0.7,0.1-1,0.3c-0.3,0.2-0.5,0.5-0.6,0.8c-0.2,0.5-0.3,1.1-0.3,1.7v4.5H52.3z"/>
	<path class="st1" d="M62.2,51.3l0.2,1.3c-0.5,0.1-0.9,0.1-1.3,0.1c-0.6,0-1.1-0.1-1.4-0.3c-0.3-0.2-0.6-0.4-0.7-0.7
		s-0.2-0.9-0.2-1.7v-5h-1.2v-1.1h1.2v-2.1l1.7-0.9v3h1.7v1.1h-1.7v5.1c0,0.4,0,0.7,0.1,0.8c0.1,0.1,0.2,0.2,0.3,0.3
		c0.1,0.1,0.3,0.1,0.6,0.1C61.7,51.3,61.9,51.3,62.2,51.3z"/>
	<path class="st1" d="M68.8,48.3c0-1.6,0.5-2.8,1.5-3.6c0.8-0.6,1.9-1,3.1-1c1.3,0,2.5,0.4,3.3,1.2c0.9,0.8,1.3,1.9,1.3,3.2
		c0,1.1-0.2,2-0.6,2.6c-0.4,0.6-0.9,1.1-1.7,1.5c-0.7,0.4-1.5,0.5-2.4,0.5c-1.4,0-2.5-0.4-3.3-1.2C69.3,50.8,68.8,49.7,68.8,48.3z
		 M70.6,48.3c0,1.1,0.3,1.9,0.8,2.5c0.5,0.6,1.2,0.8,2.1,0.8c0.8,0,1.5-0.3,2.1-0.8c0.5-0.6,0.8-1.4,0.8-2.5c0-1.1-0.3-1.9-0.8-2.4
		c-0.6-0.6-1.2-0.8-2.1-0.8c-0.8,0-1.5,0.3-2.1,0.8C70.8,46.3,70.6,47.1,70.6,48.3z"/>
	<path class="st1" d="M80.4,52.6v-7.5h-1.5v-1.1h1.5V43c0-0.6,0.1-1,0.2-1.3c0.2-0.4,0.4-0.7,0.8-0.9c0.4-0.2,1-0.4,1.7-0.4
		c0.5,0,1,0,1.6,0.1l-0.2,1.3c-0.3-0.1-0.7-0.1-1-0.1c-0.5,0-0.9,0.1-1.1,0.3c-0.2,0.2-0.3,0.5-0.3,1.1v0.8h1.9v1.1H82v7.5H80.4z"/>
	<path class="st1" d="M101.1,48.4l1.8,0.4c-0.4,1.3-1.1,2.3-2,3c-1,0.7-2.2,1-3.6,1c-1.5,0-2.6-0.3-3.6-0.8
		c-0.9-0.5-1.6-1.3-2.1-2.3c-0.5-1-0.7-2.1-0.7-3.2c0-1.2,0.3-2.3,0.8-3.3c0.5-0.9,1.3-1.6,2.3-2.1c1-0.5,2.1-0.7,3.3-0.7
		c1.4,0,2.5,0.3,3.4,0.9c0.9,0.6,1.6,1.5,1.9,2.6l-1.8,0.4c-0.3-0.9-0.8-1.5-1.4-1.9c-0.6-0.4-1.3-0.6-2.3-0.6c-1,0-1.9,0.2-2.6,0.7
		c-0.7,0.4-1.2,1-1.5,1.8c-0.3,0.7-0.4,1.5-0.4,2.3c0,1,0.2,1.9,0.5,2.7s0.9,1.3,1.6,1.7c0.7,0.4,1.5,0.6,2.3,0.6
		c1,0,1.9-0.3,2.5-0.8C100.4,50.2,100.9,49.4,101.1,48.4z"/>
	<path class="st1" d="M110.6,52.6v-1.3c-0.8,1-1.8,1.5-3.1,1.5c-0.6,0-1.1-0.1-1.6-0.3c-0.5-0.2-0.9-0.4-1.1-0.7
		c-0.2-0.3-0.4-0.7-0.5-1.1c-0.1-0.3-0.1-0.7-0.1-1.4v-5.4h1.7v4.8c0,0.8,0,1.3,0.1,1.6c0.1,0.4,0.3,0.7,0.7,0.9
		c0.3,0.2,0.8,0.3,1.3,0.3c0.5,0,1-0.1,1.4-0.3c0.4-0.2,0.7-0.5,0.9-0.9c0.2-0.4,0.3-1,0.3-1.7v-4.6h1.7v8.7H110.6z"/>
	<path class="st1" d="M118.3,51.3l0.2,1.3c-0.5,0.1-0.9,0.1-1.3,0.1c-0.6,0-1.1-0.1-1.4-0.3c-0.3-0.2-0.6-0.4-0.7-0.7
		c-0.1-0.3-0.2-0.9-0.2-1.7v-5h-1.2v-1.1h1.2v-2.1l1.7-0.9v3h1.7v1.1h-1.7v5.1c0,0.4,0,0.7,0.1,0.8c0.1,0.1,0.2,0.2,0.3,0.3
		c0.1,0.1,0.3,0.1,0.6,0.1C117.7,51.3,118,51.3,118.3,51.3z"/>
	<path class="st1" d="M123.9,51.3l0.2,1.3c-0.5,0.1-0.9,0.1-1.3,0.1c-0.6,0-1.1-0.1-1.4-0.3c-0.3-0.2-0.6-0.4-0.7-0.7
		s-0.2-0.9-0.2-1.7v-5h-1.2v-1.1h1.2v-2.1l1.7-0.9v3h1.7v1.1h-1.7v5.1c0,0.4,0,0.7,0.1,0.8c0.1,0.1,0.2,0.2,0.3,0.3
		c0.1,0.1,0.3,0.1,0.6,0.1C123.4,51.3,123.6,51.3,123.9,51.3z"/>
	<path class="st1" d="M125.9,42.3v-1.7h1.7v1.7H125.9z M125.9,52.6v-8.7h1.7v8.7H125.9z"/>
	<path class="st1" d="M130.5,52.6v-8.7h1.5v1.2c0.7-1,1.8-1.4,3.1-1.4c0.6,0,1.1,0.1,1.6,0.3c0.5,0.2,0.9,0.4,1.1,0.7
		c0.2,0.3,0.4,0.7,0.5,1.1c0.1,0.3,0.1,0.7,0.1,1.4v5.3h-1.7v-5.3c0-0.6-0.1-1-0.2-1.3c-0.1-0.3-0.4-0.5-0.7-0.7
		c-0.3-0.2-0.7-0.3-1.2-0.3c-0.7,0-1.3,0.2-1.8,0.6c-0.5,0.4-0.8,1.2-0.8,2.3v4.7H130.5z"/>
	<path class="st1" d="M140,53.3l1.6,0.2c0.1,0.4,0.3,0.8,0.6,1c0.4,0.3,1,0.4,1.7,0.4c0.8,0,1.4-0.1,1.8-0.4
		c0.4-0.3,0.7-0.7,0.8-1.1c0.1-0.3,0.1-0.9,0.1-1.9c-0.7,0.8-1.6,1.1-2.7,1.1c-1.3,0-2.4-0.4-3.1-1.3c-0.7-0.9-1.1-1.9-1.1-3.1
		c0-0.8,0.2-1.6,0.5-2.3c0.3-0.7,0.8-1.2,1.5-1.6c0.6-0.4,1.4-0.6,2.3-0.6c1.2,0,2.1,0.4,2.9,1.2v-1h1.5v7.5c0,1.3-0.2,2.3-0.5,2.9
		c-0.3,0.6-0.8,1-1.5,1.3c-0.7,0.3-1.5,0.5-2.5,0.5c-1.2,0-2.1-0.2-2.8-0.7C140.3,54.9,139.9,54.2,140,53.3z M141.3,48.1
		c0,1.1,0.3,2,0.8,2.5c0.5,0.5,1.2,0.8,1.9,0.8c0.8,0,1.4-0.3,1.9-0.8c0.5-0.5,0.8-1.3,0.8-2.4c0-1.1-0.3-1.9-0.8-2.4
		c-0.5-0.5-1.2-0.8-1.9-0.8c-0.7,0-1.4,0.3-1.9,0.8C141.6,46.3,141.3,47.1,141.3,48.1z"/>
</g>
</svg>
